# xmcd
#
# Track frame offsets:
#	150
#	26828
#	49346
#	75271
#	98118
#	117888
#	136958
#	156399
#	176155
#	191420
#	210843
#	256636
#	280634
#
# Disc length: 4259 seconds
#
# Revision: 1
# Processed by: cddbd v1.5.2PL0 Copyright (c) Steve Scherf et al.
# Submitted via: audiograbber 1.83.01
#
DISCID=a510a10d
DTITLE=John Mayer - Where the Light is CD 1
DYEAR=2009
DGENRE=Blues
TTITLE0=Neon (Acoustic)
TTITLE1=Stop This Train (Acoustic)
TTITLE2=In Your Atmosphere (Acoustic)
TTITLE3=Daughters (Acoustic)
TTITLE4=Free Fallin' (Acoustic)
TTITLE5=Everyday I Have The Blues
TTITLE6=Wait Until Tomorrow
TTITLE7=Who Did You Think I Was
TTITLE8=Come When I Call
TTITLE9=Good Love Is On The Way
TTITLE10=Out Of My Mind
TTITLE11=Vultures
TTITLE12=Bold As Love
EXTD=
EXTT0=
EXTT1=
EXTT2=
EXTT3=
EXTT4=
EXTT5=
EXTT6=
EXTT7=
EXTT8=
EXTT9=
EXTT10=
EXTT11=
EXTT12=
PLAYORDER=
